PathFileType	4	(X/Y/Z)	/Users/itak/Documents/Research/Walk-IL/dataset/trc/00214_00009.trc
DataRate	CameraRate	NumFrames	NumMarkers	Units	OrigDataRate	OrigDataStartFrame	OrigNumFrames
100.000000	100.000000	4	54	mm	100.000000	63	505
Frame#	Time	RPSI			LPSI			L3			STRN			T10			C7			CLAV			RBAK			LBAK			LSHO			LUPA			LAEL			LAOL			LWTS			LWPS			LFRA			LIFD			LHPS			LHTS			RSHO			RUPA			RAEL			RAOL			RWPS			RFRA			RIFD			RHPS			RBHD			LFHD			RFHD			LBHD			LHIP			RHIP			RASI			LASI			LKNE			LTHI			LANK			LTIP			LTOE			LMT1			LMT5			LHEE			RKNE			RTHI			RANK			RTIP			RTOE			RMT5			RHEE			RWTS			RHTS			RMT1			*53			
		X1	Y1	Z1	X2	Y2	Z2	X3	Y3	Z3	X4	Y4	Z4	X5	Y5	Z5	X6	Y6	Z6	X7	Y7	Z7	X8	Y8	Z8	X9	Y9	Z9	X10	Y10	Z10	X11	Y11	Z11	X12	Y12	Z12	X13	Y13	Z13	X14	Y14	Z14	X15	Y15	Z15	X16	Y16	Z16	X17	Y17	Z17	X18	Y18	Z18	X19	Y19	Z19	X20	Y20	Z20	X21	Y21	Z21	X22	Y22	Z22	X23	Y23	Z23	X24	Y24	Z24	X25	Y25	Z25	X26	Y26	Z26	X27	Y27	Z27	X28	Y28	Z28	X29	Y29	Z29	X30	Y30	Z30	X31	Y31	Z31	X32	Y32	Z32	X33	Y33	Z33	X34	Y34	Z34	X35	Y35	Z35	X36	Y36	Z36	X37	Y37	Z37	X38	Y38	Z38	X39	Y39	Z39	X40	Y40	Z40	X41	Y41	Z41	X42	Y42	Z42	X43	Y43	Z43	X44	Y44	Z44	X45	Y45	Z45	X46	Y46	Z46	X47	Y47	Z47	X48	Y48	Z48	X49	Y49	Z49	X50	Y50	Z50	X51	Y51	Z51	X52	Y52	Z52	X53	Y53	Z53	X54	Y54	Z54	

64	0.63	-1687.492919921875	1055.323974609375	-171.4124755859375	-1676.510986328125	1061.546264648438	-291.3742065429688	-1685.45263671875	1138.700317382812	-246.5941314697266	-1447.45556640625	1319.641235351562	-229.0203094482422	-1701.525390625	1266.261352539062	-241.8263549804688	-1635.9541015625	1526.416870117188	-236.6541595458984	-1471.074584960938	1437.531127929688	-227.4306335449219	-1716.996337890625	1389.222778320312	-164.1342926025391	-1648.456665039062	1491.11083984375	-351.7404174804688	-1552.924194335938	1487.938354492188	-398.0758361816406	-1570.725341796875	1371.865844726562	-481.8603210449219	-1544.512939453125	1160.598022460938	-507.8218078613281	-1622.532104492188	1140.945922851562	-473.6312255859375	-1446.971069335938	934.25927734375	-432.3870849609375	-1458.837646484375	914.5222778320312	-514.0420532226562	-1512.798583984375	1054.263061523438	-515.5960693359375	-1417.730346679688	738.8822631835938	-437.4335021972656	-1435.914916992188	827.5072631835938	-505.3550109863281	-1393.357177734375	837.918212890625	-448.8826904296875	-1580.805786132812	1481.564697265625	-64.02198028564453	-1600.757080078125	1417.387573242188	4.093887329101562	-1614.95361328125	1132.460205078125	36.49476623535156	-1656.387329101562	1128.976196289062	-49.45267868041992	-1533.381958007812	901.0944213867188	45.91082763671875	-1587.88134765625	1063.395263671875	44.88529205322266	-1466.852661132812	719.9032592773438	-27.00063896179199	-1494.202880859375	793.2705078125	41.94428634643555	-1591.423095703125	1652.5537109375	-156.4235687255859	-1435.091552734375	1745.5419921875	-294.3761901855469	-1410.161254882812	1743.922607421875	-197.6985473632812	-1583.094360351562	1671.484130859375	-295.4139099121094	-1566.26025390625	996.5830078125	-423.1100769042969	-1599.85205078125	1011.629028320312	-56.83316421508789	-1499.160278320312	1054.256469726562	-86.08122253417969	-1466.134521484375	1036.247924804688	-367.8412780761719	-1545.740600585938	509.3194274902344	-370.13427734375	-1542.21875	653.2200927734375	-404.9573059082031	-1628.07666015625	41.14896011352539	-353.1050109863281	-1595.564819335938	287.4337768554688	-373.7821044921875	-1415.884887695312	46.40483856201172	-292.4913940429688	-1484.479614257812	38.59957885742188	-250.8120422363281	-1499.7587890625	42.43358993530273	-367.0693359375	-1690.458984375	46.72071838378906	-302.2095336914062	-1580.124633789062	516.9948120117188	-100.5256652832031	-1550.192749023438	784.7070922851562	-49.74980163574219	-1659.34033203125	39.80178451538086	-143.1305084228516	-1577.834716796875	402.1697692871094	-119.4191360473633	-1444.183227539062	47.12580871582031	-142.6594085693359	-1556.52392578125	40.32265472412109	-95.53968811035156	-1709.454467773438	39.48776626586914	-213.1083374023438	-1485.489868164062	915.987548828125	-21.9404468536377	-1444.445434570312	794.8189086914062	-11.88558483123779	-1489.94189453125	44.80278778076172	-195.7337951660156	nan	nan	nan	
65	0.64	-1687.303344726562	1055.267944335938	-171.1622772216797	-1676.328857421875	1061.55078125	-291.183837890625	-1685.278686523438	1138.52490234375	-246.4354095458984	-1447.499755859375	1319.606689453125	-228.8997497558594	-1701.3642578125	1266.066162109375	-241.6073608398438	-1635.977172851562	1526.312622070312	-236.5320739746094	-1471.239868164062	1437.434692382812	-227.2433929443359	-1717.001586914062	1389.0947265625	-164.0552368164062	-1648.577514648438	1490.872802734375	-351.5418395996094	-1553.06298828125	1487.729736328125	-397.8915405273438	-1570.73486328125	1371.69140625	-481.6597595214844	-1544.117553710938	1160.50732421875	-507.6586303710938	-1622.082885742188	1140.641967773438	-473.5284118652344	-1445.666381835938	934.6403198242188	-431.86962890625	-1457.41796875	914.7501831054688	-513.4652709960938	-1511.965454101562	1054.271728515625	-515.2857666015625	-1416.350219726562	739.2608032226562	-436.6076354980469	-1434.175170898438	827.8546142578125	-504.6423950195312	-1392.041748046875	838.2628784179688	-448.1276550292969	-1580.866088867188	1481.485473632812	-63.87032699584961	-1600.7763671875	1417.30615234375	4.200485706329346	-1614.952880859375	1132.435791015625	36.74407577514648	-1656.25537109375	1128.82080078125	-49.29040145874023	-1533.242309570312	901.0548706054688	46.24523162841797	-1587.866943359375	1063.376831054688	45.0909423828125	-1466.542846679688	719.9136352539062	-26.63965034484863	-1494.010131835938	793.2467041015625	42.26655960083008	-1591.299072265625	1653.386962890625	-156.7439422607422	-1433.660400390625	1744.806518554688	-294.2147216796875	-1409.229248046875	1743.303344726562	-197.4113006591797	-1582.201416015625	1671.827758789062	-295.7198181152344	-1566.303100585938	996.5967407226562	-423.0255737304688	-1599.682861328125	1011.643859863281	-56.6844367980957	-1498.87890625	1054.154052734375	-85.83167266845703	-1465.95751953125	1036.242919921875	-367.684326171875	-1545.663940429688	509.3170776367188	-370.0559387207031	-1542.156005859375	653.2311401367188	-404.8687133789062	-1628.076904296875	41.14632415771484	-353.1028137207031	-1595.523071289062	287.4360046386719	-373.7398681640625	-1415.883056640625	46.407470703125	-292.4905090332031	-1484.476806640625	38.59085845947266	-250.8050537109375	-1499.754028320312	42.44033432006836	-367.0674438476562	-1690.463012695312	46.71378707885742	-302.2090759277344	-1580.004028320312	516.9702758789062	-100.4661407470703	-1550.09814453125	784.6484375	-49.57914733886719	-1659.33837890625	39.79945373535156	-143.1303405761719	-1577.75048828125	402.1257629394531	-119.3576812744141	-1444.183471679688	47.12416076660156	-142.6654663085938	-1556.517822265625	40.32187271118164	-95.54166412353516	-1709.451782226562	39.48756790161133	-213.1056671142578	-1485.215942382812	916.0365600585938	-21.61731910705566	-1444.3291015625	794.7991333007812	-11.55801200866699	-1489.9248046875	44.80046081542969	-195.7608947753906	nan	nan	nan	
66	0.65	-1687.121337890625	1055.21728515625	-170.9163208007812	-1676.15625	1061.5537109375	-290.9963684082031	-1685.111694335938	1138.349609375	-246.2735900878906	-1447.5546875	1319.576538085938	-228.7769317626953	-1701.208251953125	1265.87255859375	-241.3859405517578	-1636.003173828125	1526.206420898438	-236.3990020751953	-1471.391723632812	1437.336181640625	-227.067626953125	-1717.015014648438	1388.984008789062	-163.9882965087891	-1648.695922851562	1490.635986328125	-351.3439636230469	-1553.209838867188	1487.535888671875	-397.6987915039062	-1570.747802734375	1371.520751953125	-481.4587097167969	-1543.720581054688	1160.425903320312	-507.5002746582031	-1621.630493164062	1140.34228515625	-473.4387512207031	-1444.292358398438	935.0490112304688	-431.353515625	-1455.963134765625	915.0003662109375	-512.8705444335938	-1511.111328125	1054.290405273438	-514.97265625	-1415.053833007812	739.6634521484375	-435.7154846191406	-1432.39794921875	828.2321166992188	-503.9105834960938	-1390.80419921875	838.63232421875	-447.3095397949219	-1580.921875	1481.406005859375	-63.71433258056641	-1600.80224609375	1417.220825195312	4.312732696533203	-1614.95849609375	1132.426391601562	36.99777984619141	-1656.122924804688	1128.664184570312	-49.12885284423828	-1533.079467773438	901.0358276367188	46.5912971496582	-1587.842163085938	1063.355102539062	45.27914810180664	-1466.144653320312	719.9447631835938	-26.2580509185791	-1493.791625976562	793.2422485351562	42.59224319458008	-1591.173706054688	1654.224731445312	-157.0868682861328	-1432.181518554688	1744.05126953125	-294.0177307128906	-1408.285522460938	1742.657958984375	-197.0763397216797	-1581.2587890625	1672.182739257812	-296.0488586425781	-1566.336669921875	996.6110229492188	-422.9400634765625	-1599.513061523438	1011.648071289062	-56.53579330444336	-1498.608520507812	1054.052124023438	-85.57643890380859	-1465.770751953125	1036.240478515625	-367.5218811035156	-1545.583129882812	509.3158264160156	-369.9804992675781	-1542.077514648438	653.2425537109375	-404.7757263183594	-1628.077514648438	41.14350891113281	-353.1009216308594	-1595.467529296875	287.4339904785156	-373.6943359375	-1415.88232421875	46.41018295288086	-292.4893188476562	-1484.47265625	38.57840728759766	-250.798095703125	-1499.750610351562	42.44631576538086	-367.0648193359375	-1690.461547851562	46.71125030517578	-302.21435546875	-1579.876220703125	516.9488525390625	-100.4068222045898	-1550.043701171875	784.5982055664062	-49.34414672851562	-1659.335693359375	39.79732131958008	-143.1318359375	-1577.669677734375	402.0922241210938	-119.298095703125	-1444.183837890625	47.12266540527344	-142.6708374023438	-1556.512451171875	40.32143783569336	-95.54245758056641	-1709.451171875	39.48836517333984	-213.1047210693359	-1485.026000976562	916.0604858398438	-21.30633926391602	-1444.189697265625	794.8059692382812	-11.21401500701904	-1489.8984375	44.77408599853516	-195.8158111572266	nan	nan	nan	
67	0.66	-1686.948120117188	1055.17529296875	-170.6793823242188	-1675.994140625	1061.555541992188	-290.8117980957031	-1684.953491210938	1138.177001953125	-246.1095428466797	-1447.619018554688	1319.550048828125	-228.649169921875	-1701.059936523438	1265.683471679688	-241.1639404296875	-1636.031494140625	1526.099975585938	-236.2554321289062	-1471.5224609375	1437.239379882812	-226.9029235839844	-1717.02685546875	1388.884643554688	-163.9248962402344	-1648.803466796875	1490.404541015625	-351.1455078125	-1553.361450195312	1487.362182617188	-397.4989929199219	-1570.767944335938	1371.354858398438	-481.2576599121094	-1543.30712890625	1160.355102539062	-507.3382873535156	-1621.176025390625	1140.051025390625	-473.3608703613281	-1442.872314453125	935.4815673828125	-430.8311767578125	-1454.47705078125	915.2760620117188	-512.258544921875	-1510.234741210938	1054.318725585938	-514.6484375	-1413.902221679688	740.0831298828125	-434.7259216308594	-1430.587524414062	828.6397705078125	-503.1609802246094	-1389.707763671875	839.0191040039062	-446.3941650390625	-1580.972534179688	1481.328857421875	-63.55324935913086	-1600.834594726562	1417.133666992188	4.433857440948486	-1614.966064453125	1132.430786132812	37.24756622314453	-1655.988403320312	1128.508422851562	-48.96702575683594	-1532.894897460938	901.0380249023438	46.94378662109375	-1587.800659179688	1063.33154296875	45.45376205444336	-1465.67041015625	719.9944458007812	-25.85922050476074	-1493.542236328125	793.263671875	42.92658615112305	-1591.045288085938	1655.063354492188	-157.4481353759766	-1430.660522460938	1743.280395507812	-293.7819213867188	-1407.333129882812	1741.986938476562	-196.6915435791016	-1580.265014648438	1672.547973632812	-296.396484375	-1566.347534179688	996.6268920898438	-422.8471374511719	-1599.334350585938	1011.635925292969	-56.38365936279297	-1498.35400390625	1053.954956054688	-85.3291015625	-1465.57666015625	1036.2412109375	-367.3553161621094	-1545.5009765625	509.3165893554688	-369.9098510742188	-1541.982177734375	653.25439453125	-404.6787719726562	-1628.078491210938	41.14082717895508	-353.1002502441406	-1595.397705078125	287.4270629882812	-373.6480407714844	-1415.8828125	46.41321563720703	-292.4875793457031	-1484.46826171875	38.56618118286133	-250.7925720214844	-1499.751098632812	42.44910049438477	-367.0609130859375	-1690.455322265625	46.71253967285156	-302.22509765625	-1579.74365234375	516.9328002929688	-100.3456649780273	-1550.004028320312	784.5502319335938	-49.07085037231445	-1659.332763671875	39.79593276977539	-143.1346282958984	-1577.588745117188	402.0735778808594	-119.2411651611328	-1444.18408203125	47.12108993530273	-142.6750183105469	-1556.507690429688	40.32206726074219	-95.54174041748047	-1709.452392578125	39.49017715454102	-213.1053466796875	-1484.907104492188	916.0673217773438	-21.00252914428711	-1444.00048828125	794.836181640625	-10.84984493255615	-1489.867065429688	44.72785949707031	-195.8889465332031	nan	nan	nan	
